<?xml version="1.0"?>
<svg xmlns="http://www.w3.org/2000/svg" xmlns:xlink="http://www.w3.org/1999/xlink" version="1.1" id="Layer_1" x="0px" y="0px" viewBox="0 0 512 512" style="enable-background:new 0 0 512 512;" xml:space="preserve" width="512px" height="512px" class=""><g><g>
	<g>
		<g>
			<g>
				<g>
					<g>
						<g>
							<g>
								<circle cx="335.565" cy="46.183" r="7.991" data-original="#000000" class="active-path" data-old_color="#000000" fill="#FFFFFF"/>
								<circle cx="373.872" cy="46.183" r="7.991" data-original="#000000" class="active-path" data-old_color="#000000" fill="#FFFFFF"/>
								<circle cx="412.179" cy="46.183" r="7.991" data-original="#000000" class="active-path" data-old_color="#000000" fill="#FFFFFF"/>
							</g>
						</g>
					</g>
				</g>
			</g>
		</g>
		<g>
			<path d="M102.755,251.247l50.392-32.956c0.767-0.574,1.916-0.766,2.874-0.766c4.024,0,9.197,4.215,9.197,9.58     c0,2.299-1.15,4.406-2.874,5.557l-40.237,26.441l40.237,26.441c1.724,0.958,2.874,3.065,2.874,5.557     c0,5.364-5.173,9.389-9.197,9.389c-0.958,0-2.107-0.192-2.874-0.767l-50.392-32.956c-2.874-1.916-4.215-5.174-4.215-7.664     C98.54,256.612,99.881,253.163,102.755,251.247z" data-original="#000000" class="active-path" data-old_color="#000000" fill="#FFFFFF"/>
			<path d="M271.75,171.922c0,1.15-0.192,2.108-0.767,3.066l-70.319,140.254c-1.149,2.3-3.641,3.641-6.323,3.641     c-4.407,0-7.473-3.641-7.473-7.089c0-0.958,0.191-1.916,0.575-2.874l70.51-140.83c1.15-2.49,3.257-3.448,5.749-3.448     C267.535,164.642,271.75,167.516,271.75,171.922z" data-original="#000000" class="active-path" data-old_color="#000000" fill="#FFFFFF"/>
			<path d="M355.672,266.767l-50.392,32.956c-0.766,0.574-1.724,0.767-2.682,0.767c-4.215,0-9.197-4.024-9.197-9.389     c0-2.491,1.149-4.599,2.683-5.557l40.428-26.441l-40.428-26.441c-1.533-1.15-2.683-3.258-2.683-5.557     c0-5.365,4.982-9.58,9.197-9.58c0.958,0,1.916,0.191,2.682,0.766l50.392,32.956c2.874,1.916,4.215,5.365,4.215,7.856     C359.887,261.593,358.738,264.851,355.672,266.767z" data-original="#000000" class="active-path" data-old_color="#000000" fill="#FFFFFF"/>
		</g>
	</g>
	<g>
		<path d="M209.355,38.683H46.226c-4.142,0-7.5,3.357-7.5,7.5s3.358,7.5,7.5,7.5h163.129c4.142,0,7.5-3.357,7.5-7.5    S213.497,38.683,209.355,38.683z" data-original="#000000" class="active-path" data-old_color="#000000" fill="#FFFFFF"/>
		<path d="M266.562,448.955H24.193c-5.069,0-9.193-4.124-9.193-9.193V87.291h428.878v167.335c0,4.143,3.358,7.5,7.5,7.5    s7.5-3.357,7.5-7.5V29.269c0-13.34-10.854-24.193-24.194-24.193H24.193C10.853,5.076,0,15.929,0,29.269v410.492    c0,13.34,10.853,24.193,24.193,24.193h242.369c4.142,0,7.5-3.357,7.5-7.5S270.704,448.955,266.562,448.955z M15,29.269    c0-5.069,4.124-9.193,9.193-9.193h410.491c5.069,0,9.194,4.124,9.194,9.193v43.021H15V29.269z" data-original="#000000" class="active-path" data-old_color="#000000" fill="#FFFFFF"/>
		<path d="M505.78,313.066l-31.138-31.139c-4.012-4.012-9.343-6.22-15.016-6.22h-0.037c-5.686,0.01-11.024,2.236-15.031,6.27    l-25.591,25.759c-20.867,18.992-65.639,23.33-83.949,24.313c-12.203,0.656-22.488,9.484-25.011,21.469L281.07,490.973    c-0.919,4.369,0.406,8.86,3.545,12.029c0.015,0.015,0.03,0.031,0.045,0.046c0.048,0.048,0.096,0.094,0.145,0.141    c2.495,2.422,5.786,3.735,9.186,3.735c0.911,0,1.831-0.095,2.744-0.287L434.191,477.7c11.984-2.522,20.812-12.807,21.467-25.009    c0.984-18.315,5.324-63.107,24.327-83.966l25.745-25.575c4.034-4.008,6.261-9.346,6.27-15.031    C512.009,322.432,509.8,317.086,505.78,313.066z M440.68,451.886c-0.292,5.431-4.231,10.01-9.579,11.136L309.745,488.57    l50.358-50.357c4.793,2.853,10.205,4.281,15.618,4.281c7.816,0,15.631-2.975,21.581-8.924c5.765-5.765,8.939-13.43,8.939-21.582    s-3.175-15.816-8.939-21.58c-5.764-5.766-13.429-8.94-21.581-8.94s-15.816,3.175-21.581,8.939s-8.939,13.429-8.939,21.581    c0,5.589,1.492,10.949,4.289,15.625l-50.351,50.351l25.548-121.355c1.126-5.349,5.707-9.288,11.138-9.58    c22.949-1.232,63.297-5.997,87.819-23.801l40.838,40.838C446.677,388.586,441.913,428.936,440.68,451.886z M360.201,411.987    c0-4.146,1.614-8.043,4.545-10.974c2.932-2.932,6.829-4.547,10.975-4.547s8.043,1.615,10.975,4.547    c2.932,2.931,4.546,6.828,4.546,10.974s-1.614,8.044-4.546,10.975c-6.043,6.043-15.871,6.05-21.924,0.026    c-0.008-0.009-0.017-0.017-0.025-0.026s-0.017-0.017-0.026-0.025C361.806,420.008,360.201,416.12,360.201,411.987z     M495.159,332.508l-20.578,20.443l-39.824-39.824l20.443-20.578c1.177-1.185,2.745-1.839,4.415-1.842h0.011    c1.666,0,3.232,0.648,4.41,1.827l31.138,31.139c1.181,1.181,1.83,2.75,1.827,4.42S496.343,331.331,495.159,332.508z" data-original="#000000" class="active-path" data-old_color="#000000" fill="#FFFFFF"/>
	</g>
</g></g> </svg>
